# File created by Blade
# Date/Time:  Tue Apr 07 20:57:01 2015
#---------------------------------------------------------
:version 1.10
:name HOM
:units
  mass 1.0
  length 1.000000
  angle deg
:documentation
     Acclaim Skeleton File
:root
   axis xyz
   order TX TY TZ RX RY RZ
   position 0.000000 0.000000 0.000000
   orientation 0 0 0
:bonedata
   begin
      id 1
      name Spine_dum
      direction 0.000000 1.000000 0.000000
      length 4.885285
      axis 0.0 0.0 0.0 xyz
   end
   begin
      id 2
      name LeftUpLeg_dum
      direction 1.000000 0.000000 0.000000
      length 2.672193
      axis 0.0 0.0 0.0 xyz
   end
   begin
      id 3
      name RightUpLeg_dum
      direction -1.000000 0.000000 0.000000
      length 2.672193
      axis 0.0 0.0 0.0 xyz
   end
   begin
      id 4
      name Spine
      direction 0.000000 1.000000 0.000000
      length 0.000000
      axis 0.0 0.0 0.0 xyz
      dof rx ry rz
   end
   begin
      id 5
      name Spine_dum1
      direction 0.000000 1.000000 0.000000
      length 16.494159
      axis 0.0 0.0 0.0 xyz
   end
   begin
      id 6
      name Spine_dum2
      direction 0.000000 1.000000 0.000000
      length 10.663448
      axis 0.0 0.0 0.0 xyz
   end
   begin
      id 7
      name Spine_dum3
      direction 0.000000 1.000000 0.000000
      length 10.663448
      axis 0.0 0.0 0.0 xyz
   end
   begin
      id 8
      name Head
      direction 0.000000 1.000000 0.000000
      length 4.527550
      axis 0.0 0.0 0.0 xyz
      dof rx ry rz
   end
   begin
      id 9
      name LeftShoulder
      direction 1.000000 0.000000 0.000000
      length 7.531907
      axis 0.0 0.0 -90.0 xyz
      dof rx ry rz
   end
   begin
      id 10
      name LeftArm
      direction 1.000000 0.000000 0.000000
      length 10.229199
      axis 0.0 0.0 -90.0 xyz
      dof rx ry rz
   end
   begin
      id 11
      name LeftForeArm
      direction 1.000000 0.000000 0.000000
      length 8.673495
      axis 0.0 0.0 -90.0 xyz
      dof ry rz rx
   end
   begin
      id 12
      name LeftHand
      direction 0.000000 0.000000 0.000000
      length 0.000000
      axis 0.0 0.0 -90.0 xyz
      dof rx ry rz
   end
   begin
      id 13
      name LeftHand_dum1
      direction 0.000000 0.000000 0.000000
      length 0.000000
      axis 0.0 0.0 -90.0 xyz
   end
   begin
      id 14
      name LeftHand_dum2
      direction 1.000000 0.000000 0.000000
      length 3.937000
      axis 0.0 0.0 -90.0 xyz
   end
   begin
      id 15
      name LeftHandThumb1
      direction 0.000000 0.000000 1.000000
      length 3.937000
      axis 0.0 0.0 -90.0 xyz
      dof rx rz ry
   end
   begin
      id 16
      name RightShoulder
      direction -1.000000 0.000000 0.000000
      length 7.531907
      axis 0.0 0.0 90.0 xyz
      dof rx ry rz
   end
   begin
      id 17
      name RightArm
      direction -1.000000 0.000000 0.000000
      length 10.229199
      axis 0.0 0.0 90.0 xyz
      dof rx ry rz
   end
   begin
      id 18
      name RightForeArm
      direction -1.000000 0.000000 0.000000
      length 8.673495
      axis 0.0 0.0 90.0 xyz
      dof ry rz rx
   end
   begin
      id 19
      name RightHand
      direction 0.000000 0.000000 0.000000
      length 0.000000
      axis 0.0 0.0 90.0 xyz
      dof rx ry rz
   end
   begin
      id 20
      name RightHand_dum1
      direction 0.000000 0.000000 0.000000
      length 0.000000
      axis 0.0 0.0 90.0 xyz
   end
   begin
      id 21
      name RightHand_dum2
      direction -1.000000 0.000000 0.000000
      length 3.937000
      axis 0.0 0.0 90.0 xyz
   end
   begin
      id 22
      name RightHandThumb1
      direction 0.000000 0.000000 1.000000
      length 3.937000
      axis 0.0 0.0 90.0 xyz
      dof rx rz ry
   end
   begin
      id 23
      name LeftUpLeg
      direction 0.000000 -1.000000 0.000000
      length 16.263388
      axis 0.0 0.0 0.0 xyz
      dof rx ry rz
   end
   begin
      id 24
      name LeftLeg
      direction 0.000000 -1.000000 0.000000
      length 14.328163
      axis 0.0 0.0 0.0 xyz
      dof rx ry rz
   end
   begin
      id 25
      name LeftFoot
      direction 0.000000 -0.258819 0.965926
      length 5.031290
      axis 15.0 0.0 0.0 xyz
      dof rx ry rz
   end
   begin
      id 26
      name LeftToeBase
      direction 0.000000 0.000000 1.000000
      length 2.952750
      axis 0.0 0.0 0.0 xyz
      dof rx ry rz
   end
   begin
      id 27
      name RightUpLeg
      direction 0.000000 -1.000000 0.000000
      length 16.263388
      axis 0.0 0.0 0.0 xyz
      dof rx ry rz
   end
   begin
      id 28
      name RightLeg
      direction 0.000000 -1.000000 0.000000
      length 14.328163
      axis 0.0 0.0 0.0 xyz
      dof rx ry rz
   end
   begin
      id 29
      name RightFoot
      direction 0.000000 -0.258819 0.965926
      length 5.031290
      axis 15.0 0.0 0.0 xyz
      dof rx ry rz
   end
   begin
      id 30
      name RightToeBase
      direction 0.000000 0.000000 1.000000
      length 2.952750
      axis 0.0 0.0 0.0 xyz
      dof rx ry rz
   end
:hierarchy
   begin
      root Spine_dum LeftUpLeg_dum RightUpLeg_dum
      Spine_dum Spine
      LeftUpLeg_dum LeftUpLeg
      RightUpLeg_dum RightUpLeg
      Spine Spine_dum1 Spine_dum2 Spine_dum3
      Spine_dum1 Head
      Spine_dum2 LeftShoulder
      Spine_dum3 RightShoulder
      LeftShoulder LeftArm
      LeftArm LeftForeArm
      LeftForeArm LeftHand
      LeftHand LeftHand_dum1 LeftHand_dum2
      LeftHand_dum1 LeftHandThumb1
      RightShoulder RightArm
      RightArm RightForeArm
      RightForeArm RightHand
      RightHand RightHand_dum1 RightHand_dum2
      RightHand_dum1 RightHandThumb1
      LeftUpLeg LeftLeg
      LeftLeg LeftFoot
      LeftFoot LeftToeBase
      RightUpLeg RightLeg
      RightLeg RightFoot
      RightFoot RightToeBase
   end

# File created by Blade
# Date/Time:  Tue Apr 07 20:57:09 2015
# Frame Rate: 120.000 fps
#------------------------------------------------------
:FULLY-SPECIFIED
:DEGREES
179
root -5.145801 32.751747 1.280220 16.428609 -55.632969 -9.829969
Spine -2.919399 -8.604215 4.627612
Head 25.871936 -12.941271 1.102892
LeftShoulder -17.809520 44.740270 5.414637
LeftArm 52.081363 11.944561 -80.198489
LeftForeArm -24.154592 -0.000000 3.507544
LeftHand 1.672595 -0.000000 -21.951719
LeftHandThumb1 -26.253704 0.000000 33.147579
RightShoulder -4.689455 -7.179508 -17.423353
RightArm 16.488835 -18.715957 93.140850
RightForeArm 13.224035 -0.000000 4.094577
RightHand 2.447481 -0.000000 19.310562
RightHandThumb1 -24.326973 -0.000000 -32.862282
LeftUpLeg -14.872953 8.362025 6.995488
LeftLeg 44.589060 -0.000000 -0.000000
LeftFoot -13.983390 25.886692 -15.497402
LeftToeBase -17.333645 -0.000000 0.000000
RightUpLeg -13.633414 1.276379 10.698138
RightLeg 10.970997 -0.000000 -0.000000
RightFoot -10.286695 -4.579468 10.643753
RightToeBase -1.691613 -0.000000 0.000000
180
root -5.225081 32.755860 1.296301 16.945417 -56.259832 -10.216814
Spine -2.953367 -8.712124 4.922039
Head 25.811687 -12.513005 0.991871
LeftShoulder -17.569255 44.478654 5.558947
LeftArm 52.697835 12.178941 -80.249414
LeftForeArm -25.055647 -0.000000 3.859348
LeftHand 1.618342 -0.000000 -22.077348
LeftHandThumb1 -26.253704 0.000000 33.147579
RightShoulder -4.534330 -7.068055 -17.530582
RightArm 16.431558 -18.781316 93.319893
RightForeArm 13.524803 0.000000 3.976015
RightHand 2.357376 -0.000000 19.414523
RightHandThumb1 -24.326973 -0.000000 -32.862282
LeftUpLeg -16.204643 7.670558 7.107230
LeftLeg 46.423645 -0.000000 -0.000000
LeftFoot -13.289074 22.831356 -14.150344
LeftToeBase -17.482016 -0.000000 0.000000
RightUpLeg -13.463620 1.525926 10.849913
RightLeg 10.672913 -0.000000 -0.000000
RightFoot -10.228319 -4.247755 10.845687
RightToeBase -1.835420 -0.000000 0.000000
181
root -5.331207 32.766853 1.344905 17.058177 -57.293746 -10.363959
Spine -2.836125 -8.499710 4.898306
Head 25.915276 -12.060933 0.916119
LeftShoulder -17.437341 44.309987 5.594346
LeftArm 53.313727 12.332972 -80.211248
LeftForeArm -25.682561 -0.000000 4.192120
LeftHand 2.041248 0.000000 -21.994405
LeftHandThumb1 -26.253704 0.000000 33.147579
RightShoulder -4.406149 -7.084981 -17.514130
RightArm 16.475715 -18.926710 93.320835
RightForeArm 13.812552 0.000000 3.880927
RightHand 2.324150 -0.000000 19.475897
RightHandThumb1 -24.326973 -0.000000 -32.862282
LeftUpLeg -17.030942 7.256492 6.958120
LeftLeg 47.713122 -0.000000 -0.000000
LeftFoot -12.831326 20.030143 -13.246200
LeftToeBase -17.450839 -0.000000 0.000000
RightUpLeg -12.879314 2.207957 10.684337
RightLeg 10.170678 -0.000000 -0.000000
RightFoot -10.019943 -3.945889 10.457834
RightToeBase -2.322814 -0.000000 0.000000
182
root -5.425426 32.774996 1.383957 17.329815 -58.219911 -10.562123
Spine -2.813421 -8.342910 4.940321
Head 25.948472 -11.666737 0.817241
LeftShoulder -17.185407 43.990623 5.800140
LeftArm 53.757790 12.410750 -80.283176
LeftForeArm -26.017785 0.000000 4.570694
LeftHand 2.466271 -0.000000 -22.074787
LeftHandThumb1 -26.253704 0.000000 33.147579
RightShoulder -4.302046 -7.037659 -17.543366
RightArm 16.479749 -18.830769 93.407589
RightForeArm 13.650003 -0.000000 3.807751
RightHand 2.398535 0.000000 19.362188
RightHandThumb1 -24.326973 -0.000000 -32.862282
LeftUpLeg -18.012152 6.583890 6.857027
LeftLeg 48.743353 -0.000000 -0.000000
LeftFoot -12.350076 17.701525 -12.743666
LeftToeBase -19.287127 -0.000000 0.000000
RightUpLeg -12.547436 2.613852 10.626135
RightLeg 9.856875 -0.000000 -0.000000
RightFoot -9.822557 -3.566815 10.137271
RightToeBase -2.585385 -0.000000 0.000000
183
root -5.519621 32.784694 1.426783 17.500144 -59.180206 -10.638651
Spine -2.807227 -8.167239 4.868394
Head 26.039734 -11.262445 0.792154
LeftShoulder -16.992498 43.813931 5.996095
LeftArm 54.384512 12.479219 -80.222254
LeftForeArm -26.126455 0.000000 4.882965
LeftHand 2.615581 -0.000000 -21.693114
LeftHandThumb1 -26.253704 0.000000 33.147579
RightShoulder -4.218811 -6.995648 -17.529812
RightArm 16.515289 -18.712464 93.419396
RightForeArm 13.416063 -0.000000 3.781978
RightHand 2.521726 -0.000000 19.302595
RightHandThumb1 -24.326973 -0.000000 -32.862282
LeftUpLeg -18.963229 5.801275 6.661570
LeftLeg 49.445439 -0.000000 -0.000000
LeftFoot -12.257549 15.881846 -12.981195
LeftToeBase -19.849676 -0.000000 0.000000
RightUpLeg -12.226452 2.872598 10.521763
RightLeg 9.560148 -0.000000 -0.000000
RightFoot -9.573674 -3.167078 9.641205
RightToeBase -3.045275 -0.000000 0.000000
184
root -5.608564 32.797202 1.473808 17.634308 -60.137856 -10.626942
Spine -2.833192 -7.999464 4.768779
Head 26.106499 -10.872421 0.738065
LeftShoulder -16.713282 43.449069 6.276196
LeftArm 54.719770 12.491742 -80.195828
LeftForeArm -26.124958 -0.000000 5.306528
LeftHand 2.727385 0.000000 -21.274299
LeftHandThumb1 -26.253704 0.000000 33.147579
RightShoulder -4.153839 -6.940317 -17.522800
RightArm 16.564535 -18.666370 93.354308
RightForeArm 13.206454 -0.000000 3.851078
RightHand 2.621925 0.000000 19.133733
RightHandThumb1 -24.326973 -0.000000 -32.862282
LeftUpLeg -19.848316 4.939770 6.410764
LeftLeg 49.681329 -0.000000 -0.000000
LeftFoot -12.311016 14.640752 -13.189567
LeftToeBase -20.116461 -0.000000 0.000000
RightUpLeg -11.978251 3.144473 10.358288
RightLeg 9.302030 -0.000000 -0.000000
RightFoot -9.289462 -2.930112 9.062949
RightToeBase -4.163677 -0.000000 0.000000
185
root -5.703763 32.811071 1.522640 17.685837 -61.050862 -10.619540
Spine -2.774798 -7.877536 4.656437
Head 26.187570 -10.480268 0.709076
LeftShoulder -16.496374 43.171120 6.534418
LeftArm 55.162362 12.549423 -79.973151
LeftForeArm -26.226784 -0.000000 5.749845
LeftHand 2.822054 -0.000000 -20.812476
LeftHandThumb1 -26.253704 0.000000 33.147579
RightShoulder -4.090123 -6.912353 -17.505591
RightArm 16.670245 -18.630086 93.217856
RightForeArm 13.102204 -0.000000 3.975806
RightHand 2.676806 -0.000000 18.892461
RightHandThumb1 -24.326973 -0.000000 -32.862282
LeftUpLeg -20.617648 4.014638 6.207133
LeftLeg 49.629134 -0.000000 -0.000000
LeftFoot -12.437960 13.895854 -13.576392
LeftToeBase -20.893973 -0.000000 0.000000
RightUpLeg -11.652487 3.456419 10.204735
RightLeg 9.038195 -0.000000 -0.000000
RightFoot -8.960741 -2.795480 8.435954
RightToeBase -4.730891 -0.000000 0.000000
186
root -5.798780 32.826613 1.573607 17.763301 -61.990774 -10.645833
Spine -2.713050 -7.724855 4.554381
Head 26.294343 -10.094175 0.651759
LeftShoulder -16.304074 42.996636 6.747194
LeftArm 55.678618 12.555533 -79.652860
LeftForeArm -26.400164 -0.000000 6.180039
LeftHand 2.936715 -0.000000 -20.464447
LeftHandThumb1 -26.253704 0.000000 33.147579
RightShoulder -4.035176 -6.908975 -17.480622
RightArm 16.845645 -18.594604 93.014311
RightForeArm 12.984275 0.000000 4.123258
RightHand 2.740480 0.000000 18.648010
RightHandThumb1 -24.326973 -0.000000 -32.862282
LeftUpLeg -21.329092 3.089398 6.042601
LeftLeg 49.332995 -0.000000 -0.000000
LeftFoot -12.714025 13.702311 -14.102864
LeftToeBase -20.788828 -0.000000 0.000000
RightUpLeg -11.298136 3.818391 10.065345
RightLeg 8.734355 -0.000000 -0.000000
RightFoot -8.561187 -2.739709 7.759519
RightToeBase -5.501151 -0.000000 0.000000
187
root -5.892941 32.839919 1.623792 17.730408 -62.922767 -10.571721
Spine -2.616142 -7.590394 4.381471
Head 26.365503 -9.670733 0.636455
LeftShoulder -16.042644 42.713674 7.087679
LeftArm 56.084813 12.571250 -79.265456
LeftForeArm -26.535159 -0.000000 6.455955
LeftHand 3.339546 -0.000000 -20.416550
LeftHandThumb1 -26.253704 0.000000 33.147579
RightShoulder -3.987116 -6.918408 -17.466071
RightArm 17.034743 -18.509559 92.805117
RightForeArm 12.915747 -0.000000 4.354582
RightHand 2.766681 -0.000000 18.380989
RightHandThumb1 -24.326973 -0.000000 -32.862282
LeftUpLeg -21.985962 2.140168 5.892204
LeftLeg 48.796115 -0.000000 -0.000000
LeftFoot -13.009387 13.614055 -14.595090
LeftToeBase -20.816214 -0.000000 0.000000
RightUpLeg -11.006111 4.122942 9.891056
RightLeg 8.590195 -0.000000 -0.000000
RightFoot -8.319321 -2.566354 7.145932
RightToeBase -5.665006 -0.000000 0.000000
188
root -5.991988 32.853281 1.677011 17.691802 -63.839089 -10.548592
Spine -2.481519 -7.457377 4.232504
Head 26.465786 -9.288503 0.612443
LeftShoulder -15.706766 42.414508 7.500200
LeftArm 56.313535 11.982292 -79.843763
LeftForeArm -25.792956 -0.000000 6.482627
LeftHand 3.622718 -0.000000 -20.594017
LeftHandThumb1 -26.253704 0.000000 33.147579
RightShoulder -3.929805 -6.875053 -17.456650
RightArm 17.200913 -18.341471 92.584154
RightForeArm 12.813821 0.000000 4.555940
RightHand 2.935013 -0.000000 18.201152
RightHandThumb1 -24.326973 -0.000000 -32.862282
LeftUpLeg -22.538030 1.257667 5.806217
LeftLeg 48.017879 -0.000000 -0.000000
LeftFoot -13.476774 13.558553 -15.110740
LeftToeBase -20.287577 -0.000000 0.000000
RightUpLeg -10.653287 4.448679 9.732968
RightLeg 8.454931 -0.000000 -0.000000
RightFoot -8.169167 -2.378517 6.711678
RightToeBase -5.804210 -0.000000 0.000000
189
root -6.075298 32.863661 1.726831 17.859292 -64.604708 -10.631773
Spine -2.448673 -7.450642 4.233590
Head 26.531203 -8.841386 0.516852
LeftShoulder -15.371014 42.131231 7.881499
LeftArm 56.519433 11.612012 -80.033345
LeftForeArm -26.268345 -0.000000 6.858000
LeftHand 3.245605 0.000000 -20.242629
LeftHandThumb1 -26.253704 0.000000 33.147579
RightShoulder -3.857584 -6.812392 -17.534511
RightArm 17.381831 -18.132237 92.360843
RightForeArm 12.750875 -0.000000 4.831872
RightHand 2.981235 -0.000000 18.036648
RightHandThumb1 -24.326973 -0.000000 -32.862282
LeftUpLeg -23.273190 0.280103 5.849757
LeftLeg 47.118193 -0.000000 -0.000000
LeftFoot -13.812260 13.519858 -15.363534
LeftToeBase -19.636112 -0.000000 0.000000
RightUpLeg -10.459545 4.564454 9.647912
RightLeg 8.347330 -0.000000 -0.000000
RightFoot -8.100624 -2.136702 6.545715
RightToeBase -5.718056 -0.000000 0.000000
